<?xml version="1.0" encoding="utf-8" standalone="no"?>
<!DOCTYPE svg PUBLIC "-//W3C//DTD SVG 1.1//EN"
  "http://www.w3.org/Graphics/SVG/1.1/DTD/svg11.dtd">
<svg xmlns:xlink="http://www.w3.org/1999/xlink" width="510.708125pt" height="236.558125pt" viewBox="0 0 510.708125 236.558125" xmlns="http://www.w3.org/2000/svg" version="1.1">
 <metadata>
  <rdf:RDF xmlns:dc="http://purl.org/dc/elements/1.1/" xmlns:cc="http://creativecommons.org/ns#" xmlns:rdf="http://www.w3.org/1999/02/22-rdf-syntax-ns#">
   <cc:Work>
    <dc:type rdf:resource="http://purl.org/dc/dcmitype/StillImage"/>
    <dc:date>2026-08-18T09:08:35.134976</dc:date>
    <dc:format>image/svg+xml</dc:format>
    <dc:creator>
     <cc:Agent>
      <dc:title>Matplotlib v3.11.1, https://matplotlib.org/</dc:title>
     </cc:Agent>
    </dc:creator>
   </cc:Work>
  </rdf:RDF>
 </metadata>
 <defs>
  <style type="text/css">*{stroke-linejoin: round; stroke-linecap: butt}</style>
 </defs>
 <g id="figure_1">
  <g id="patch_1">
   <path d="M 0 236.558125 
L 510.708125 236.558125 
L 510.708125 0 
L 0 0 
z
" style="fill: #ffffff"/>
  </g>
  <g id="axes_1">
   <g id="patch_2">
    <path d="M 56.830469 198.358125 
L 256.188125 198.358125 
L 256.188125 22.318125 
L 56.830469 22.318125 
z
" style="fill: #ffffff"/>
   </g>
   <g id="matplotlib.axis_1">
    <g id="xtick_1">
     <g id="line2d_1">
      <defs>
       <path id="mb67aab51ee" d="M 0 0 
L 0 3.5 
" style="stroke: #000000; stroke-width: 0.8"/>
      </defs>
      <g>
       <use xlink:href="#mb67aab51ee" x="117.67339" y="198.358125" style="stroke: #000000; stroke-width: 0.8"/>
      </g>
     </g>
     <g id="text_1">
      <!-- 5 -->
      <g transform="translate(114.49214 212.955781) scale(0.1 -0.1)">
       <defs>
        <path id="DejaVuSerif-18" d="M 3219 4666 
L 3219 4153 
L 1081 4153 
L 1081 2816 
Q 1244 2928 1461 2984 
Q 1678 3041 1947 3041 
Q 2703 3041 3140 2622 
Q 3578 2203 3578 1478 
Q 3578 738 3136 323 
Q 2694 -91 1894 -91 
Q 1572 -91 1234 -12 
Q 897 66 544 225 
L 544 1131 
L 897 1131 
Q 925 688 1179 453 
Q 1434 219 1894 219 
Q 2388 219 2653 544 
Q 2919 869 2919 1478 
Q 2919 2084 2655 2407 
Q 2391 2731 1894 2731 
Q 1613 2731 1398 2631 
Q 1184 2531 1019 2322 
L 750 2322 
L 750 4666 
L 3219 4666 
z
" transform="scale(0.015625)"/>
       </defs>
       <use xlink:href="#DejaVuSerif-18"/>
      </g>
     </g>
    </g>
    <g id="xtick_2">
     <g id="line2d_2">
      <g>
       <use xlink:href="#mb67aab51ee" x="182.399902" y="198.358125" style="stroke: #000000; stroke-width: 0.8"/>
      </g>
     </g>
     <g id="text_2">
      <!-- 10 -->
      <g transform="translate(176.037402 212.955781) scale(0.1 -0.1)">
       <defs>
        <path id="DejaVuSerif-14" d="M 909 0 
L 909 331 
L 1722 331 
L 1722 4213 
L 781 3603 
L 781 4013 
L 1919 4750 
L 2350 4750 
L 2350 331 
L 3163 331 
L 3163 0 
L 909 0 
z
" transform="scale(0.015625)"/>
        <path id="DejaVuSerif-13" d="M 2034 219 
Q 2513 219 2750 744 
Q 2988 1269 2988 2328 
Q 2988 3391 2750 3916 
Q 2513 4441 2034 4441 
Q 1556 4441 1318 3916 
Q 1081 3391 1081 2328 
Q 1081 1269 1318 744 
Q 1556 219 2034 219 
z
M 2034 -91 
Q 1275 -91 848 546 
Q 422 1184 422 2328 
Q 422 3475 848 4112 
Q 1275 4750 2034 4750 
Q 2797 4750 3222 4112 
Q 3647 3475 3647 2328 
Q 3647 1184 3222 546 
Q 2797 -91 2034 -91 
z
" transform="scale(0.015625)"/>
       </defs>
       <use xlink:href="#DejaVuSerif-14"/>
       <use xlink:href="#DejaVuSerif-13" transform="translate(63.625 0)"/>
      </g>
     </g>
    </g>
    <g id="xtick_3">
     <g id="line2d_3">
      <g>
       <use xlink:href="#mb67aab51ee" x="247.126413" y="198.358125" style="stroke: #000000; stroke-width: 0.8"/>
      </g>
     </g>
     <g id="text_3">
      <!-- 15 -->
      <g transform="translate(240.763913 212.955781) scale(0.1 -0.1)">
       <use xlink:href="#DejaVuSerif-14"/>
       <use xlink:href="#DejaVuSerif-18" transform="translate(63.625 0)"/>
      </g>
     </g>
    </g>
    <g id="text_4">
     <!-- maturity $n$ -->
     <g transform="translate(129.959297 226.955781) scale(0.1 -0.1)">
      <defs>
       <path id="DejaVuSerif-50" d="M 3316 2675 
Q 3481 3041 3739 3227 
Q 3997 3413 4341 3413 
Q 4863 3413 5119 3089 
Q 5375 2766 5375 2113 
L 5375 331 
L 5894 331 
L 5894 0 
L 4300 0 
L 4300 331 
L 4800 331 
L 4800 2047 
Q 4800 2556 4650 2772 
Q 4500 2988 4153 2988 
Q 3769 2988 3567 2697 
Q 3366 2406 3366 1850 
L 3366 331 
L 3866 331 
L 3866 0 
L 2291 0 
L 2291 331 
L 2791 331 
L 2791 2069 
Q 2791 2566 2641 2777 
Q 2491 2988 2144 2988 
Q 1759 2988 1557 2697 
Q 1356 2406 1356 1850 
L 1356 331 
L 1856 331 
L 1856 0 
L 263 0 
L 263 331 
L 781 331 
L 781 2994 
L 231 2994 
L 231 3322 
L 1356 3322 
L 1356 2731 
Q 1516 3063 1762 3238 
Q 2009 3413 2322 3413 
Q 2709 3413 2968 3220 
Q 3228 3028 3316 2675 
z
" transform="scale(0.015625)"/>
       <path id="DejaVuSerif-44" d="M 2547 1044 
L 2547 1747 
L 1806 1747 
Q 1378 1747 1168 1562 
Q 959 1378 959 997 
Q 959 650 1171 447 
Q 1384 244 1747 244 
Q 2106 244 2326 466 
Q 2547 688 2547 1044 
z
M 3122 2075 
L 3122 331 
L 3634 331 
L 3634 0 
L 2547 0 
L 2547 359 
Q 2356 128 2106 18 
Q 1856 -91 1522 -91 
Q 969 -91 644 203 
Q 319 497 319 997 
Q 319 1513 691 1797 
Q 1063 2081 1741 2081 
L 2547 2081 
L 2547 2309 
Q 2547 2688 2317 2895 
Q 2088 3103 1672 3103 
Q 1328 3103 1125 2947 
Q 922 2791 872 2484 
L 575 2484 
L 575 3156 
Q 875 3284 1158 3348 
Q 1441 3413 1709 3413 
Q 2400 3413 2761 3070 
Q 3122 2728 3122 2075 
z
" transform="scale(0.015625)"/>
       <path id="DejaVuSerif-57" d="M 691 2988 
L 184 2988 
L 184 3322 
L 691 3322 
L 691 4353 
L 1269 4353 
L 1269 3322 
L 2350 3322 
L 2350 2988 
L 1269 2988 
L 1269 878 
Q 1269 456 1350 337 
Q 1431 219 1650 219 
Q 1875 219 1978 351 
Q 2081 484 2088 781 
L 2522 781 
Q 2497 328 2275 118 
Q 2053 -91 1600 -91 
Q 1103 -91 897 129 
Q 691 350 691 878 
L 691 2988 
z
" transform="scale(0.015625)"/>
       <path id="DejaVuSerif-58" d="M 2266 3322 
L 3341 3322 
L 3341 331 
L 3884 331 
L 3884 0 
L 2766 0 
L 2766 588 
Q 2606 256 2353 82 
Q 2100 -91 1766 -91 
Q 1213 -91 952 223 
Q 691 538 691 1209 
L 691 2988 
L 172 2988 
L 172 3322 
L 1269 3322 
L 1269 1388 
Q 1269 781 1417 556 
Q 1566 331 1947 331 
Q 2347 331 2556 625 
Q 2766 919 2766 1478 
L 2766 2988 
L 2266 2988 
L 2266 3322 
z
" transform="scale(0.015625)"/>
       <path id="DejaVuSerif-55" d="M 3059 3328 
L 3059 2497 
L 2728 2497 
Q 2713 2744 2591 2866 
Q 2469 2988 2234 2988 
Q 1809 2988 1582 2694 
Q 1356 2400 1356 1850 
L 1356 331 
L 2022 331 
L 2022 0 
L 263 0 
L 263 331 
L 781 331 
L 781 2994 
L 231 2994 
L 231 3322 
L 1356 3322 
L 1356 2731 
Q 1525 3078 1790 3245 
Q 2056 3413 2438 3413 
Q 2578 3413 2733 3391 
Q 2888 3369 3059 3328 
z
" transform="scale(0.015625)"/>
       <path id="DejaVuSerif-4c" d="M 622 4353 
Q 622 4497 726 4603 
Q 831 4709 978 4709 
Q 1122 4709 1226 4603 
Q 1331 4497 1331 4353 
Q 1331 4206 1228 4103 
Q 1125 4000 978 4000 
Q 831 4000 726 4103 
Q 622 4206 622 4353 
z
M 1356 331 
L 1900 331 
L 1900 0 
L 231 0 
L 231 331 
L 781 331 
L 781 2988 
L 231 2988 
L 231 3322 
L 1356 3322 
L 1356 331 
z
" transform="scale(0.015625)"/>
       <path id="DejaVuSerif-5c" d="M 1381 -609 
L 1600 -56 
L 359 2988 
L -19 2988 
L -19 3322 
L 1509 3322 
L 1509 2988 
L 978 2988 
L 1913 703 
L 2847 2988 
L 2350 2988 
L 2350 3322 
L 3597 3322 
L 3597 2988 
L 3225 2988 
L 1703 -750 
Q 1547 -1138 1356 -1280 
Q 1166 -1422 819 -1422 
Q 672 -1422 517 -1397 
Q 363 -1372 206 -1325 
L 206 -691 
L 500 -691 
Q 519 -903 608 -995 
Q 697 -1088 884 -1088 
Q 1056 -1088 1161 -992 
Q 1266 -897 1381 -609 
z
" transform="scale(0.015625)"/>
       <path id="DejaVuSerif-3" transform="scale(0.015625)"/>
       <path id="DejaVuSans-Oblique-51" d="M 3566 2113 
L 3156 0 
L 2578 0 
L 2988 2091 
Q 3016 2238 3031 2350 
Q 3047 2463 3047 2528 
Q 3047 2791 2881 2937 
Q 2716 3084 2419 3084 
Q 1956 3084 1622 2776 
Q 1288 2469 1184 1941 
L 800 0 
L 225 0 
L 903 3500 
L 1478 3500 
L 1363 2950 
Q 1603 3253 1940 3418 
Q 2278 3584 2650 3584 
Q 3113 3584 3367 3334 
Q 3622 3084 3622 2631 
Q 3622 2519 3608 2391 
Q 3594 2263 3566 2113 
z
" transform="scale(0.015625)"/>
      </defs>
      <use xlink:href="#DejaVuSerif-50" transform="translate(0 0.421875)"/>
      <use xlink:href="#DejaVuSerif-44" transform="translate(94.824219 0.421875)"/>
      <use xlink:href="#DejaVuSerif-57" transform="translate(154.443359 0.421875)"/>
      <use xlink:href="#DejaVuSerif-58" transform="translate(194.628906 0.421875)"/>
      <use xlink:href="#DejaVuSerif-55" transform="translate(259.033203 0.421875)"/>
      <use xlink:href="#DejaVuSerif-4c" transform="translate(306.835938 0.421875)"/>
      <use xlink:href="#DejaVuSerif-57" transform="translate(338.818359 0.421875)"/>
      <use xlink:href="#DejaVuSerif-5c" transform="translate(379.003906 0.421875)"/>
      <use xlink:href="#DejaVuSerif-3" transform="translate(435.498047 0.421875)"/>
      <use xlink:href="#DejaVuSans-Oblique-51" transform="translate(467.285156 0.421875)"/>
     </g>
    </g>
   </g>
   <g id="matplotlib.axis_2">
    <g id="ytick_1">
     <g id="line2d_4">
      <defs>
       <path id="m2057010db4" d="M 0 0 
L -3.5 0 
" style="stroke: #000000; stroke-width: 0.8"/>
      </defs>
      <g>
       <use xlink:href="#m2057010db4" x="56.830469" y="177.387187" style="stroke: #000000; stroke-width: 0.8"/>
      </g>
     </g>
     <g id="text_5">
      <!-- 0.996 -->
      <g transform="translate(21.202344 181.186015) scale(0.1 -0.1)">
       <defs>
        <path id="DejaVuSerif-11" d="M 603 325 
Q 603 500 722 622 
Q 841 744 1019 744 
Q 1191 744 1312 622 
Q 1434 500 1434 325 
Q 1434 153 1312 31 
Q 1191 -91 1019 -91 
Q 841 -91 722 29 
Q 603 150 603 325 
z
" transform="scale(0.015625)"/>
        <path id="DejaVuSerif-1c" d="M 2994 2091 
Q 2784 1856 2512 1740 
Q 2241 1625 1900 1625 
Q 1206 1625 804 2044 
Q 403 2463 403 3188 
Q 403 3897 839 4323 
Q 1275 4750 2003 4750 
Q 2794 4750 3217 4161 
Q 3641 3572 3641 2478 
Q 3641 1253 3137 581 
Q 2634 -91 1722 -91 
Q 1475 -91 1203 -44 
Q 931 3 647 97 
L 647 872 
L 997 872 
Q 1038 556 1241 387 
Q 1444 219 1784 219 
Q 2391 219 2687 676 
Q 2984 1134 2994 2091 
z
M 1978 4441 
Q 1534 4441 1298 4117 
Q 1063 3794 1063 3188 
Q 1063 2581 1298 2256 
Q 1534 1931 1978 1931 
Q 2422 1931 2658 2245 
Q 2894 2559 2894 3150 
Q 2894 3772 2656 4106 
Q 2419 4441 1978 4441 
z
" transform="scale(0.015625)"/>
        <path id="DejaVuSerif-19" d="M 2094 219 
Q 2534 219 2771 542 
Q 3009 866 3009 1472 
Q 3009 2078 2771 2401 
Q 2534 2725 2094 2725 
Q 1647 2725 1412 2412 
Q 1178 2100 1178 1509 
Q 1178 888 1415 553 
Q 1653 219 2094 219 
z
M 1075 2569 
Q 1288 2803 1556 2918 
Q 1825 3034 2163 3034 
Q 2859 3034 3264 2615 
Q 3669 2197 3669 1472 
Q 3669 763 3233 336 
Q 2797 -91 2069 -91 
Q 1278 -91 853 498 
Q 428 1088 428 2181 
Q 428 3406 931 4078 
Q 1434 4750 2350 4750 
Q 2597 4750 2869 4703 
Q 3141 4656 3425 4563 
L 3425 3794 
L 3072 3794 
Q 3034 4109 2831 4275 
Q 2628 4441 2284 4441 
Q 1678 4441 1381 3981 
Q 1084 3522 1075 2569 
z
" transform="scale(0.015625)"/>
       </defs>
       <use xlink:href="#DejaVuSerif-13"/>
       <use xlink:href="#DejaVuSerif-11" transform="translate(63.625 0)"/>
       <use xlink:href="#DejaVuSerif-1c" transform="translate(95.40625 0)"/>
       <use xlink:href="#DejaVuSerif-1c" transform="translate(159.03125 0)"/>
       <use xlink:href="#DejaVuSerif-19" transform="translate(222.65625 0)"/>
      </g>
     </g>
    </g>
    <g id="ytick_2">
     <g id="line2d_5">
      <g>
       <use xlink:href="#m2057010db4" x="56.830469" y="144.440605" style="stroke: #000000; stroke-width: 0.8"/>
      </g>
     </g>
     <g id="text_6">
      <!-- 0.998 -->
      <g transform="translate(21.202344 148.239434) scale(0.1 -0.1)">
       <defs>
        <path id="DejaVuSerif-1b" d="M 2981 1275 
Q 2981 1775 2732 2051 
Q 2484 2328 2034 2328 
Q 1584 2328 1336 2051 
Q 1088 1775 1088 1275 
Q 1088 772 1336 495 
Q 1584 219 2034 219 
Q 2484 219 2732 495 
Q 2981 772 2981 1275 
z
M 2853 3541 
Q 2853 3966 2637 4203 
Q 2422 4441 2034 4441 
Q 1650 4441 1433 4203 
Q 1216 3966 1216 3541 
Q 1216 3113 1433 2875 
Q 1650 2638 2034 2638 
Q 2422 2638 2637 2875 
Q 2853 3113 2853 3541 
z
M 2516 2484 
Q 3047 2413 3344 2092 
Q 3641 1772 3641 1275 
Q 3641 619 3225 264 
Q 2809 -91 2034 -91 
Q 1263 -91 845 264 
Q 428 619 428 1275 
Q 428 1772 725 2092 
Q 1022 2413 1556 2484 
Q 1084 2569 832 2842 
Q 581 3116 581 3541 
Q 581 4103 968 4426 
Q 1356 4750 2034 4750 
Q 2713 4750 3100 4426 
Q 3488 4103 3488 3541 
Q 3488 3116 3236 2842 
Q 2984 2569 2516 2484 
z
" transform="scale(0.015625)"/>
       </defs>
       <use xlink:href="#DejaVuSerif-13"/>
       <use xlink:href="#DejaVuSerif-11" transform="translate(63.625 0)"/>
       <use xlink:href="#DejaVuSerif-1c" transform="translate(95.40625 0)"/>
       <use xlink:href="#DejaVuSerif-1c" transform="translate(159.03125 0)"/>
       <use xlink:href="#DejaVuSerif-1b" transform="translate(222.65625 0)"/>
      </g>
     </g>
    </g>
    <g id="ytick_3">
     <g id="line2d_6">
      <g>
       <use xlink:href="#m2057010db4" x="56.830469" y="111.494024" style="stroke: #000000; stroke-width: 0.8"/>
      </g>
     </g>
     <g id="text_7">
      <!-- 1.000 -->
      <g transform="translate(21.202344 115.292852) scale(0.1 -0.1)">
       <use xlink:href="#DejaVuSerif-14"/>
       <use xlink:href="#DejaVuSerif-11" transform="translate(63.625 0)"/>
       <use xlink:href="#DejaVuSerif-13" transform="translate(95.40625 0)"/>
       <use xlink:href="#DejaVuSerif-13" transform="translate(159.03125 0)"/>
       <use xlink:href="#DejaVuSerif-13" transform="translate(222.65625 0)"/>
      </g>
     </g>
    </g>
    <g id="ytick_4">
     <g id="line2d_7">
      <g>
       <use xlink:href="#m2057010db4" x="56.830469" y="78.547442" style="stroke: #000000; stroke-width: 0.8"/>
      </g>
     </g>
     <g id="text_8">
      <!-- 1.002 -->
      <g transform="translate(21.202344 82.34627) scale(0.1 -0.1)">
       <defs>
        <path id="DejaVuSerif-15" d="M 819 3553 
L 469 3553 
L 469 4384 
Q 803 4563 1142 4656 
Q 1481 4750 1806 4750 
Q 2534 4750 2956 4397 
Q 3378 4044 3378 3438 
Q 3378 2753 2422 1800 
Q 2347 1728 2309 1691 
L 1131 513 
L 3078 513 
L 3078 1088 
L 3444 1088 
L 3444 0 
L 434 0 
L 434 341 
L 1850 1753 
Q 2319 2222 2519 2614 
Q 2719 3006 2719 3438 
Q 2719 3909 2473 4175 
Q 2228 4441 1797 4441 
Q 1350 4441 1106 4219 
Q 863 3997 819 3553 
z
" transform="scale(0.015625)"/>
       </defs>
       <use xlink:href="#DejaVuSerif-14"/>
       <use xlink:href="#DejaVuSerif-11" transform="translate(63.625 0)"/>
       <use xlink:href="#DejaVuSerif-13" transform="translate(95.40625 0)"/>
       <use xlink:href="#DejaVuSerif-13" transform="translate(159.03125 0)"/>
       <use xlink:href="#DejaVuSerif-15" transform="translate(222.65625 0)"/>
      </g>
     </g>
    </g>
    <g id="ytick_5">
     <g id="line2d_8">
      <g>
       <use xlink:href="#m2057010db4" x="56.830469" y="45.600861" style="stroke: #000000; stroke-width: 0.8"/>
      </g>
     </g>
     <g id="text_9">
      <!-- 1.004 -->
      <g transform="translate(21.202344 49.399689) scale(0.1 -0.1)">
       <defs>
        <path id="DejaVuSerif-17" d="M 2234 1581 
L 2234 4063 
L 641 1581 
L 2234 1581 
z
M 3609 0 
L 1484 0 
L 1484 331 
L 2234 331 
L 2234 1247 
L 197 1247 
L 197 1588 
L 2241 4750 
L 2859 4750 
L 2859 1581 
L 3750 1581 
L 3750 1247 
L 2859 1247 
L 2859 331 
L 3609 331 
L 3609 0 
z
" transform="scale(0.015625)"/>
       </defs>
       <use xlink:href="#DejaVuSerif-14"/>
       <use xlink:href="#DejaVuSerif-11" transform="translate(63.625 0)"/>
       <use xlink:href="#DejaVuSerif-13" transform="translate(95.40625 0)"/>
       <use xlink:href="#DejaVuSerif-13" transform="translate(159.03125 0)"/>
       <use xlink:href="#DejaVuSerif-17" transform="translate(222.65625 0)"/>
      </g>
     </g>
    </g>
    <g id="text_10">
     <!-- $E_t[C_{t+n}]/C_t$ -->
     <g transform="translate(14.8 137.138125) rotate(-90) scale(0.1 -0.1)">
      <defs>
       <path id="DejaVuSans-Oblique-28" d="M 1081 4666 
L 4031 4666 
L 3928 4134 
L 1606 4134 
L 1338 2753 
L 3566 2753 
L 3463 2222 
L 1234 2222 
L 909 531 
L 3284 531 
L 3181 0 
L 172 0 
L 1081 4666 
z
" transform="scale(0.015625)"/>
       <path id="DejaVuSans-Oblique-57" d="M 2706 3500 
L 2619 3053 
L 1472 3053 
L 1100 1153 
Q 1081 1047 1072 975 
Q 1063 903 1063 863 
Q 1063 663 1183 572 
Q 1303 481 1569 481 
L 2150 481 
L 2053 0 
L 1503 0 
Q 991 0 739 200 
Q 488 400 488 806 
Q 488 878 497 964 
Q 506 1050 525 1153 
L 897 3053 
L 409 3053 
L 500 3500 
L 978 3500 
L 1172 4494 
L 1747 4494 
L 1556 3500 
L 2706 3500 
z
" transform="scale(0.015625)"/>
       <path id="DejaVuSans-3e" d="M 550 4863 
L 1875 4863 
L 1875 4416 
L 1125 4416 
L 1125 -397 
L 1875 -397 
L 1875 -844 
L 550 -844 
L 550 4863 
z
" transform="scale(0.015625)"/>
       <path id="DejaVuSans-Oblique-26" d="M 4447 4306 
L 4319 3641 
Q 4019 3944 3683 4091 
Q 3347 4238 2956 4238 
Q 2422 4238 2017 3981 
Q 1613 3725 1319 3200 
Q 1131 2863 1032 2486 
Q 934 2109 934 1728 
Q 934 1091 1264 756 
Q 1594 422 2222 422 
Q 2656 422 3056 561 
Q 3456 700 3834 978 
L 3688 231 
Q 3316 72 2936 -9 
Q 2556 -91 2175 -91 
Q 1278 -91 773 396 
Q 269 884 269 1753 
Q 269 2309 461 2846 
Q 653 3384 1013 3828 
Q 1394 4300 1883 4525 
Q 2372 4750 3022 4750 
Q 3422 4750 3780 4639 
Q 4138 4528 4447 4306 
z
" transform="scale(0.015625)"/>
       <path id="DejaVuSans-e" d="M 2944 4013 
L 2944 2272 
L 4684 2272 
L 4684 1741 
L 2944 1741 
L 2944 0 
L 2419 0 
L 2419 1741 
L 678 1741 
L 678 2272 
L 2419 2272 
L 2419 4013 
L 2944 4013 
z
" transform="scale(0.015625)"/>
       <path id="DejaVuSans-40" d="M 1947 4863 
L 1947 -844 
L 622 -844 
L 622 -397 
L 1369 -397 
L 1369 4416 
L 622 4416 
L 622 4863 
L 1947 4863 
z
" transform="scale(0.015625)"/>
       <path id="DejaVuSans-12" d="M 1625 4666 
L 2156 4666 
L 531 -594 
L 0 -594 
L 1625 4666 
z
" transform="scale(0.015625)"/>
      </defs>
      <use xlink:href="#DejaVuSans-Oblique-28" transform="translate(0 0.015625)"/>
      <use xlink:href="#DejaVuSans-Oblique-57" transform="translate(63.183594 -14.984326) scale(0.7)"/>
      <use xlink:href="#DejaVuSans-3e" transform="translate(93.364258 0.015625)"/>
      <use xlink:href="#DejaVuSans-Oblique-26" transform="translate(132.37793 0.015625)"/>
      <use xlink:href="#DejaVuSans-Oblique-57" transform="translate(202.202148 -14.984326) scale(0.7)"/>
      <use xlink:href="#DejaVuSans-e" transform="translate(243.286133 -14.984326) scale(0.7)"/>
      <use xlink:href="#DejaVuSans-Oblique-51" transform="translate(315.576172 -14.984326) scale(0.7)"/>
      <use xlink:href="#DejaVuSans-40" transform="translate(362.675781 0.015625)"/>
      <use xlink:href="#DejaVuSans-12" transform="translate(401.689453 0.015625)"/>
      <use xlink:href="#DejaVuSans-Oblique-26" transform="translate(435.380859 0.015625)"/>
      <use xlink:href="#DejaVuSans-Oblique-57" transform="translate(505.205078 -14.984326) scale(0.7)"/>
     </g>
    </g>
   </g>
   <g id="line2d_9">
    <path d="M 65.89218 172.682458 
L 78.837483 190.356307 
L 91.782785 189.596868 
L 104.728087 181.100897 
L 117.67339 169.374974 
L 130.618692 156.302507 
L 143.563995 142.666309 
L 156.509297 128.79051 
L 169.454599 114.808966 
L 182.399902 100.776847 
L 195.345204 86.716863 
L 208.290506 72.638347 
L 221.235809 58.545132 
L 234.181111 44.438784 
L 247.126413 30.319943 
" clip-path="url(#pb3524d5be3)" style="fill: none; stroke: #1d4e89; stroke-width: 1.4; stroke-linecap: square"/>
    <defs>
     <path id="mb5ab0a3c9d" d="M 0 2 
C 0.530406 2 1.03916 1.789267 1.414214 1.414214 
C 1.789267 1.03916 2 0.530406 2 0 
C 2 -0.530406 1.789267 -1.03916 1.414214 -1.414214 
C 1.03916 -1.789267 0.530406 -2 0 -2 
C -0.530406 -2 -1.03916 -1.789267 -1.414214 -1.414214 
C -1.789267 -1.03916 -2 -0.530406 -2 0 
C -2 0.530406 -1.789267 1.03916 -1.414214 1.414214 
C -1.03916 1.789267 -0.530406 2 0 2 
z
" style="stroke: #1d4e89"/>
    </defs>
    <g clip-path="url(#pb3524d5be3)">
     <use xlink:href="#mb5ab0a3c9d" x="65.89218" y="172.682458" style="fill: #1d4e89; stroke: #1d4e89"/>
     <use xlink:href="#mb5ab0a3c9d" x="78.837483" y="190.356307" style="fill: #1d4e89; stroke: #1d4e89"/>
     <use xlink:href="#mb5ab0a3c9d" x="91.782785" y="189.596868" style="fill: #1d4e89; stroke: #1d4e89"/>
     <use xlink:href="#mb5ab0a3c9d" x="104.728087" y="181.100897" style="fill: #1d4e89; stroke: #1d4e89"/>
     <use xlink:href="#mb5ab0a3c9d" x="117.67339" y="169.374974" style="fill: #1d4e89; stroke: #1d4e89"/>
     <use xlink:href="#mb5ab0a3c9d" x="130.618692" y="156.302507" style="fill: #1d4e89; stroke: #1d4e89"/>
     <use xlink:href="#mb5ab0a3c9d" x="143.563995" y="142.666309" style="fill: #1d4e89; stroke: #1d4e89"/>
     <use xlink:href="#mb5ab0a3c9d" x="156.509297" y="128.79051" style="fill: #1d4e89; stroke: #1d4e89"/>
     <use xlink:href="#mb5ab0a3c9d" x="169.454599" y="114.808966" style="fill: #1d4e89; stroke: #1d4e89"/>
     <use xlink:href="#mb5ab0a3c9d" x="182.399902" y="100.776847" style="fill: #1d4e89; stroke: #1d4e89"/>
     <use xlink:href="#mb5ab0a3c9d" x="195.345204" y="86.716863" style="fill: #1d4e89; stroke: #1d4e89"/>
     <use xlink:href="#mb5ab0a3c9d" x="208.290506" y="72.638347" style="fill: #1d4e89; stroke: #1d4e89"/>
     <use xlink:href="#mb5ab0a3c9d" x="221.235809" y="58.545132" style="fill: #1d4e89; stroke: #1d4e89"/>
     <use xlink:href="#mb5ab0a3c9d" x="234.181111" y="44.438784" style="fill: #1d4e89; stroke: #1d4e89"/>
     <use xlink:href="#mb5ab0a3c9d" x="247.126413" y="30.319943" style="fill: #1d4e89; stroke: #1d4e89"/>
    </g>
   </g>
   <g id="line2d_10">
    <path d="M 56.830469 111.494024 
L 256.188125 111.494024 
" clip-path="url(#pb3524d5be3)" style="fill: none; stroke-dasharray: 0.8,1.32; stroke-dashoffset: 0; stroke: #999999; stroke-width: 0.8"/>
   </g>
   <g id="patch_3">
    <path d="M 56.830469 198.358125 
L 56.830469 22.318125 
" style="fill: none; stroke: #000000; stroke-width: 0.7; stroke-linejoin: miter; stroke-linecap: square"/>
   </g>
   <g id="patch_4">
    <path d="M 56.830469 198.358125 
L 256.188125 198.358125 
" style="fill: none; stroke: #000000; stroke-width: 0.7; stroke-linejoin: miter; stroke-linecap: square"/>
   </g>
   <g id="text_11">
    <!-- Cash-flow recursion -->
    <g transform="translate(95.727422 16.318125) scale(0.12 -0.12)">
     <defs>
      <path id="DejaVuSerif-26" d="M 4513 1234 
Q 4306 581 3820 245 
Q 3334 -91 2591 -91 
Q 2134 -91 1743 65 
Q 1353 222 1050 525 
Q 700 875 529 1320 
Q 359 1766 359 2328 
Q 359 3416 987 4083 
Q 1616 4750 2644 4750 
Q 3025 4750 3456 4650 
Q 3888 4550 4384 4347 
L 4384 3272 
L 4031 3272 
Q 3916 3859 3567 4137 
Q 3219 4416 2591 4416 
Q 1844 4416 1459 3886 
Q 1075 3356 1075 2328 
Q 1075 1303 1459 773 
Q 1844 244 2591 244 
Q 3113 244 3450 492 
Q 3788 741 3938 1234 
L 4513 1234 
z
" transform="scale(0.015625)"/>
      <path id="DejaVuSerif-56" d="M 359 184 
L 359 959 
L 691 959 
Q 703 588 923 403 
Q 1144 219 1575 219 
Q 1963 219 2166 364 
Q 2369 509 2369 788 
Q 2369 1006 2220 1140 
Q 2072 1275 1594 1428 
L 1178 1569 
Q 750 1706 558 1912 
Q 366 2119 366 2438 
Q 366 2894 700 3153 
Q 1034 3413 1625 3413 
Q 1888 3413 2178 3344 
Q 2469 3275 2778 3144 
L 2778 2419 
L 2447 2419 
Q 2434 2741 2221 2922 
Q 2009 3103 1644 3103 
Q 1281 3103 1095 2975 
Q 909 2847 909 2591 
Q 909 2381 1050 2254 
Q 1191 2128 1613 1997 
L 2069 1856 
Q 2541 1709 2748 1489 
Q 2956 1269 2956 922 
Q 2956 450 2595 179 
Q 2234 -91 1600 -91 
Q 1278 -91 972 -22 
Q 666 47 359 184 
z
" transform="scale(0.015625)"/>
      <path id="DejaVuSerif-4b" d="M 263 0 
L 263 331 
L 781 331 
L 781 4531 
L 231 4531 
L 231 4863 
L 1356 4863 
L 1356 2731 
Q 1516 3069 1770 3241 
Q 2025 3413 2363 3413 
Q 2913 3413 3172 3097 
Q 3431 2781 3431 2113 
L 3431 331 
L 3944 331 
L 3944 0 
L 2356 0 
L 2356 331 
L 2853 331 
L 2853 1931 
Q 2853 2541 2704 2764 
Q 2556 2988 2175 2988 
Q 1775 2988 1565 2697 
Q 1356 2406 1356 1850 
L 1356 331 
L 1856 331 
L 1856 0 
L 263 0 
z
" transform="scale(0.015625)"/>
      <path id="DejaVuSerif-10" d="M 281 1959 
L 1881 1959 
L 1881 1472 
L 281 1472 
L 281 1959 
z
" transform="scale(0.015625)"/>
      <path id="DejaVuSerif-cf1" d="M 2291 4863 
L 3531 4863 
L 3531 331 
L 4078 331 
L 4078 0 
L 2406 0 
L 2406 331 
L 2956 331 
L 2956 4531 
L 2284 4531 
Q 1775 4531 1565 4328 
Q 1356 4125 1356 3634 
L 1356 3322 
L 2278 3322 
L 2278 2988 
L 1356 2988 
L 1356 331 
L 1900 331 
L 1900 0 
L 231 0 
L 231 331 
L 781 331 
L 781 2988 
L 231 2988 
L 231 3322 
L 781 3322 
L 781 3622 
Q 781 4250 1154 4556 
Q 1528 4863 2291 4863 
z
" transform="scale(0.015625)"/>
      <path id="DejaVuSerif-52" d="M 1925 219 
Q 2388 219 2623 584 
Q 2859 950 2859 1663 
Q 2859 2375 2623 2739 
Q 2388 3103 1925 3103 
Q 1463 3103 1227 2739 
Q 991 2375 991 1663 
Q 991 950 1228 584 
Q 1466 219 1925 219 
z
M 1925 -91 
Q 1200 -91 759 389 
Q 319 869 319 1663 
Q 319 2456 758 2934 
Q 1197 3413 1925 3413 
Q 2653 3413 3092 2934 
Q 3531 2456 3531 1663 
Q 3531 869 3092 389 
Q 2653 -91 1925 -91 
z
" transform="scale(0.015625)"/>
      <path id="DejaVuSerif-5a" d="M 3072 3322 
L 3922 728 
L 4672 2988 
L 4191 2988 
L 4191 3322 
L 5394 3322 
L 5394 2988 
L 5025 2988 
L 4038 0 
L 3559 0 
L 2741 2484 
L 1919 0 
L 1459 0 
L 475 2988 
L 103 2988 
L 103 3322 
L 1606 3322 
L 1606 2988 
L 1069 2988 
L 1813 728 
L 2669 3322 
L 3072 3322 
z
" transform="scale(0.015625)"/>
      <path id="DejaVuSerif-48" d="M 3469 1600 
L 991 1600 
L 991 1575 
Q 991 903 1244 561 
Q 1497 219 1991 219 
Q 2369 219 2611 417 
Q 2853 616 2950 1006 
L 3413 1006 
Q 3275 459 2904 184 
Q 2534 -91 1931 -91 
Q 1203 -91 761 389 
Q 319 869 319 1663 
Q 319 2450 753 2931 
Q 1188 3413 1894 3413 
Q 2647 3413 3050 2948 
Q 3453 2484 3469 1600 
z
M 2791 1931 
Q 2772 2513 2545 2808 
Q 2319 3103 1894 3103 
Q 1497 3103 1269 2806 
Q 1041 2509 991 1931 
L 2791 1931 
z
" transform="scale(0.015625)"/>
      <path id="DejaVuSerif-46" d="M 3291 997 
Q 3169 466 2822 187 
Q 2475 -91 1925 -91 
Q 1200 -91 759 389 
Q 319 869 319 1663 
Q 319 2459 759 2936 
Q 1200 3413 1925 3413 
Q 2241 3413 2553 3339 
Q 2866 3266 3181 3116 
L 3181 2266 
L 2847 2266 
Q 2781 2703 2561 2903 
Q 2341 3103 1931 3103 
Q 1466 3103 1228 2742 
Q 991 2381 991 1663 
Q 991 944 1227 581 
Q 1463 219 1931 219 
Q 2303 219 2525 412 
Q 2747 606 2828 997 
L 3291 997 
z
" transform="scale(0.015625)"/>
      <path id="DejaVuSerif-51" d="M 263 0 
L 263 331 
L 781 331 
L 781 2988 
L 231 2988 
L 231 3322 
L 1356 3322 
L 1356 2731 
Q 1516 3069 1770 3241 
Q 2025 3413 2363 3413 
Q 2913 3413 3172 3097 
Q 3431 2781 3431 2113 
L 3431 331 
L 3944 331 
L 3944 0 
L 2356 0 
L 2356 331 
L 2853 331 
L 2853 1931 
Q 2853 2541 2703 2767 
Q 2553 2994 2175 2994 
Q 1775 2994 1565 2701 
Q 1356 2409 1356 1850 
L 1356 331 
L 1856 331 
L 1856 0 
L 263 0 
z
" transform="scale(0.015625)"/>
     </defs>
     <use xlink:href="#DejaVuSerif-26"/>
     <use xlink:href="#DejaVuSerif-44" transform="translate(76.515625 0)"/>
     <use xlink:href="#DejaVuSerif-56" transform="translate(136.140625 0)"/>
     <use xlink:href="#DejaVuSerif-4b" transform="translate(187.453125 0)"/>
     <use xlink:href="#DejaVuSerif-10" transform="translate(251.859375 0)"/>
     <use xlink:href="#DejaVuSerif-cf1" transform="translate(285.65625 0)"/>
     <use xlink:href="#DejaVuSerif-52" transform="translate(352.359375 0)"/>
     <use xlink:href="#DejaVuSerif-5a" transform="translate(412.5625 0)"/>
     <use xlink:href="#DejaVuSerif-3" transform="translate(498.15625 0)"/>
     <use xlink:href="#DejaVuSerif-55" transform="translate(529.9375 0)"/>
     <use xlink:href="#DejaVuSerif-48" transform="translate(577.734375 0)"/>
     <use xlink:href="#DejaVuSerif-46" transform="translate(636.921875 0)"/>
     <use xlink:href="#DejaVuSerif-58" transform="translate(692.921875 0)"/>
     <use xlink:href="#DejaVuSerif-55" transform="translate(757.328125 0)"/>
     <use xlink:href="#DejaVuSerif-56" transform="translate(805.125 0)"/>
     <use xlink:href="#DejaVuSerif-4c" transform="translate(856.4375 0)"/>
     <use xlink:href="#DejaVuSerif-52" transform="translate(888.421875 0)"/>
     <use xlink:href="#DejaVuSerif-51" transform="translate(948.625 0)"/>
    </g>
   </g>
  </g>
  <g id="axes_2">
   <g id="patch_5">
    <path d="M 304.150469 198.358125 
L 503.508125 198.358125 
L 503.508125 22.318125 
L 304.150469 22.318125 
z
" style="fill: #ffffff"/>
   </g>
   <g id="matplotlib.axis_3">
    <g id="xtick_4">
     <g id="line2d_11">
      <g>
       <use xlink:href="#mb67aab51ee" x="364.99339" y="198.358125" style="stroke: #000000; stroke-width: 0.8"/>
      </g>
     </g>
     <g id="text_12">
      <!-- 5 -->
      <g transform="translate(361.81214 212.955781) scale(0.1 -0.1)">
       <use xlink:href="#DejaVuSerif-18"/>
      </g>
     </g>
    </g>
    <g id="xtick_5">
     <g id="line2d_12">
      <g>
       <use xlink:href="#mb67aab51ee" x="429.719902" y="198.358125" style="stroke: #000000; stroke-width: 0.8"/>
      </g>
     </g>
     <g id="text_13">
      <!-- 10 -->
      <g transform="translate(423.357402 212.955781) scale(0.1 -0.1)">
       <use xlink:href="#DejaVuSerif-14"/>
       <use xlink:href="#DejaVuSerif-13" transform="translate(63.625 0)"/>
      </g>
     </g>
    </g>
    <g id="xtick_6">
     <g id="line2d_13">
      <g>
       <use xlink:href="#mb67aab51ee" x="494.446413" y="198.358125" style="stroke: #000000; stroke-width: 0.8"/>
      </g>
     </g>
     <g id="text_14">
      <!-- 15 -->
      <g transform="translate(488.083913 212.955781) scale(0.1 -0.1)">
       <use xlink:href="#DejaVuSerif-14"/>
       <use xlink:href="#DejaVuSerif-18" transform="translate(63.625 0)"/>
      </g>
     </g>
    </g>
    <g id="text_15">
     <!-- maturity $n$ -->
     <g transform="translate(377.279297 226.955781) scale(0.1 -0.1)">
      <use xlink:href="#DejaVuSerif-50" transform="translate(0 0.421875)"/>
      <use xlink:href="#DejaVuSerif-44" transform="translate(94.824219 0.421875)"/>
      <use xlink:href="#DejaVuSerif-57" transform="translate(154.443359 0.421875)"/>
      <use xlink:href="#DejaVuSerif-58" transform="translate(194.628906 0.421875)"/>
      <use xlink:href="#DejaVuSerif-55" transform="translate(259.033203 0.421875)"/>
      <use xlink:href="#DejaVuSerif-4c" transform="translate(306.835938 0.421875)"/>
      <use xlink:href="#DejaVuSerif-57" transform="translate(338.818359 0.421875)"/>
      <use xlink:href="#DejaVuSerif-5c" transform="translate(379.003906 0.421875)"/>
      <use xlink:href="#DejaVuSerif-3" transform="translate(435.498047 0.421875)"/>
      <use xlink:href="#DejaVuSans-Oblique-51" transform="translate(467.285156 0.421875)"/>
     </g>
    </g>
   </g>
   <g id="matplotlib.axis_4">
    <g id="ytick_6">
     <g id="line2d_14">
      <g>
       <use xlink:href="#m2057010db4" x="304.150469" y="192.0636" style="stroke: #000000; stroke-width: 0.8"/>
      </g>
     </g>
     <g id="text_16">
      <!-- 3.2 -->
      <g transform="translate(281.247344 195.862428) scale(0.1 -0.1)">
       <defs>
        <path id="DejaVuSerif-16" d="M 622 4469 
Q 988 4606 1323 4678 
Q 1659 4750 1953 4750 
Q 2638 4750 3022 4454 
Q 3406 4159 3406 3634 
Q 3406 3213 3140 2930 
Q 2875 2647 2388 2547 
Q 2963 2466 3280 2130 
Q 3597 1794 3597 1259 
Q 3597 606 3158 257 
Q 2719 -91 1894 -91 
Q 1528 -91 1179 -12 
Q 831 66 488 225 
L 488 1131 
L 838 1131 
Q 869 681 1141 450 
Q 1413 219 1906 219 
Q 2384 219 2661 495 
Q 2938 772 2938 1253 
Q 2938 1803 2653 2086 
Q 2369 2369 1819 2369 
L 1522 2369 
L 1522 2688 
L 1678 2688 
Q 2225 2688 2498 2914 
Q 2772 3141 2772 3597 
Q 2772 4006 2547 4223 
Q 2322 4441 1900 4441 
Q 1478 4441 1245 4241 
Q 1013 4041 972 3647 
L 622 3647 
L 622 4469 
z
" transform="scale(0.015625)"/>
       </defs>
       <use xlink:href="#DejaVuSerif-16"/>
       <use xlink:href="#DejaVuSerif-11" transform="translate(63.625 0)"/>
       <use xlink:href="#DejaVuSerif-15" transform="translate(95.40625 0)"/>
      </g>
     </g>
    </g>
    <g id="ytick_7">
     <g id="line2d_15">
      <g>
       <use xlink:href="#m2057010db4" x="304.150469" y="167.923367" style="stroke: #000000; stroke-width: 0.8"/>
      </g>
     </g>
     <g id="text_17">
      <!-- 3.4 -->
      <g transform="translate(281.247344 171.722195) scale(0.1 -0.1)">
       <use xlink:href="#DejaVuSerif-16"/>
       <use xlink:href="#DejaVuSerif-11" transform="translate(63.625 0)"/>
       <use xlink:href="#DejaVuSerif-17" transform="translate(95.40625 0)"/>
      </g>
     </g>
    </g>
    <g id="ytick_8">
     <g id="line2d_16">
      <g>
       <use xlink:href="#m2057010db4" x="304.150469" y="143.783133" style="stroke: #000000; stroke-width: 0.8"/>
      </g>
     </g>
     <g id="text_18">
      <!-- 3.6 -->
      <g transform="translate(281.247344 147.581961) scale(0.1 -0.1)">
       <use xlink:href="#DejaVuSerif-16"/>
       <use xlink:href="#DejaVuSerif-11" transform="translate(63.625 0)"/>
       <use xlink:href="#DejaVuSerif-19" transform="translate(95.40625 0)"/>
      </g>
     </g>
    </g>
    <g id="ytick_9">
     <g id="line2d_17">
      <g>
       <use xlink:href="#m2057010db4" x="304.150469" y="119.6429" style="stroke: #000000; stroke-width: 0.8"/>
      </g>
     </g>
     <g id="text_19">
      <!-- 3.8 -->
      <g transform="translate(281.247344 123.441728) scale(0.1 -0.1)">
       <use xlink:href="#DejaVuSerif-16"/>
       <use xlink:href="#DejaVuSerif-11" transform="translate(63.625 0)"/>
       <use xlink:href="#DejaVuSerif-1b" transform="translate(95.40625 0)"/>
      </g>
     </g>
    </g>
    <g id="ytick_10">
     <g id="line2d_18">
      <g>
       <use xlink:href="#m2057010db4" x="304.150469" y="95.502667" style="stroke: #000000; stroke-width: 0.8"/>
      </g>
     </g>
     <g id="text_20">
      <!-- 4.0 -->
      <g transform="translate(281.247344 99.301495) scale(0.1 -0.1)">
       <use xlink:href="#DejaVuSerif-17"/>
       <use xlink:href="#DejaVuSerif-11" transform="translate(63.625 0)"/>
       <use xlink:href="#DejaVuSerif-13" transform="translate(95.40625 0)"/>
      </g>
     </g>
    </g>
    <g id="ytick_11">
     <g id="line2d_19">
      <g>
       <use xlink:href="#m2057010db4" x="304.150469" y="71.362433" style="stroke: #000000; stroke-width: 0.8"/>
      </g>
     </g>
     <g id="text_21">
      <!-- 4.2 -->
      <g transform="translate(281.247344 75.161261) scale(0.1 -0.1)">
       <use xlink:href="#DejaVuSerif-17"/>
       <use xlink:href="#DejaVuSerif-11" transform="translate(63.625 0)"/>
       <use xlink:href="#DejaVuSerif-15" transform="translate(95.40625 0)"/>
      </g>
     </g>
    </g>
    <g id="ytick_12">
     <g id="line2d_20">
      <g>
       <use xlink:href="#m2057010db4" x="304.150469" y="47.2222" style="stroke: #000000; stroke-width: 0.8"/>
      </g>
     </g>
     <g id="text_22">
      <!-- 4.4 -->
      <g transform="translate(281.247344 51.021028) scale(0.1 -0.1)">
       <use xlink:href="#DejaVuSerif-17"/>
       <use xlink:href="#DejaVuSerif-11" transform="translate(63.625 0)"/>
       <use xlink:href="#DejaVuSerif-17" transform="translate(95.40625 0)"/>
      </g>
     </g>
    </g>
    <g id="ytick_13">
     <g id="line2d_21">
      <g>
       <use xlink:href="#m2057010db4" x="304.150469" y="23.081967" style="stroke: #000000; stroke-width: 0.8"/>
      </g>
     </g>
     <g id="text_23">
      <!-- 4.6 -->
      <g transform="translate(281.247344 26.880795) scale(0.1 -0.1)">
       <use xlink:href="#DejaVuSerif-17"/>
       <use xlink:href="#DejaVuSerif-11" transform="translate(63.625 0)"/>
       <use xlink:href="#DejaVuSerif-19" transform="translate(95.40625 0)"/>
      </g>
     </g>
    </g>
    <g id="text_24">
     <!-- spot rate (%) -->
     <g transform="translate(274.845 143.294375) rotate(-90) scale(0.1 -0.1)">
      <defs>
       <path id="DejaVuSerif-53" d="M 1313 1825 
L 1313 1497 
Q 1313 897 1542 583 
Q 1772 269 2209 269 
Q 2650 269 2876 622 
Q 3103 975 3103 1663 
Q 3103 2353 2876 2703 
Q 2650 3053 2209 3053 
Q 1772 3053 1542 2737 
Q 1313 2422 1313 1825 
z
M 738 2988 
L 184 2988 
L 184 3322 
L 1313 3322 
L 1313 2803 
Q 1481 3116 1742 3264 
Q 2003 3413 2388 3413 
Q 3000 3413 3387 2928 
Q 3775 2444 3775 1663 
Q 3775 881 3387 395 
Q 3000 -91 2388 -91 
Q 2003 -91 1742 57 
Q 1481 206 1313 519 
L 1313 -997 
L 1856 -997 
L 1856 -1331 
L 184 -1331 
L 184 -997 
L 738 -997 
L 738 2988 
z
" transform="scale(0.015625)"/>
       <path id="DejaVuSerif-b" d="M 2041 -997 
Q 1281 -656 893 83 
Q 506 822 506 1931 
Q 506 3044 893 3783 
Q 1281 4522 2041 4863 
L 2041 4556 
Q 1559 4225 1350 3623 
Q 1141 3022 1141 1931 
Q 1141 844 1350 242 
Q 1559 -359 2041 -691 
L 2041 -997 
z
" transform="scale(0.015625)"/>
       <path id="DejaVuSerif-8" d="M 1434 4459 
Q 1159 4459 1004 4200 
Q 850 3941 850 3475 
Q 850 3016 1008 2753 
Q 1166 2491 1434 2491 
Q 1700 2491 1854 2752 
Q 2009 3013 2009 3475 
Q 2009 3938 1854 4198 
Q 1700 4459 1434 4459 
z
M 4653 2169 
Q 4381 2169 4226 1906 
Q 4072 1644 4072 1178 
Q 4072 719 4228 458 
Q 4384 197 4653 197 
Q 4922 197 5075 458 
Q 5228 719 5228 1178 
Q 5228 1641 5073 1905 
Q 4919 2169 4653 2169 
z
M 4653 2450 
Q 5147 2450 5437 2106 
Q 5728 1763 5728 1178 
Q 5728 594 5436 251 
Q 5144 -91 4653 -91 
Q 4153 -91 3862 251 
Q 3572 594 3572 1178 
Q 3572 1766 3864 2108 
Q 4156 2450 4653 2450 
z
M 4263 4750 
L 4738 4750 
L 1819 -91 
L 1344 -91 
L 4263 4750 
z
M 1428 4750 
Q 1922 4750 2215 4408 
Q 2509 4066 2509 3481 
Q 2509 2891 2217 2550 
Q 1925 2209 1428 2209 
Q 931 2209 642 2551 
Q 353 2894 353 3481 
Q 353 4063 643 4406 
Q 934 4750 1428 4750 
z
" transform="scale(0.015625)"/>
       <path id="DejaVuSerif-c" d="M 453 -997 
L 453 -691 
Q 934 -359 1145 242 
Q 1356 844 1356 1931 
Q 1356 3022 1145 3623 
Q 934 4225 453 4556 
L 453 4863 
Q 1216 4522 1603 3783 
Q 1991 3044 1991 1931 
Q 1991 822 1603 83 
Q 1216 -656 453 -997 
z
" transform="scale(0.015625)"/>
      </defs>
      <use xlink:href="#DejaVuSerif-56"/>
      <use xlink:href="#DejaVuSerif-53" transform="translate(51.3125 0)"/>
      <use xlink:href="#DejaVuSerif-52" transform="translate(115.328125 0)"/>
      <use xlink:href="#DejaVuSerif-57" transform="translate(175.53125 0)"/>
      <use xlink:href="#DejaVuSerif-3" transform="translate(215.71875 0)"/>
      <use xlink:href="#DejaVuSerif-55" transform="translate(247.5 0)"/>
      <use xlink:href="#DejaVuSerif-44" transform="translate(295.296875 0)"/>
      <use xlink:href="#DejaVuSerif-57" transform="translate(354.921875 0)"/>
      <use xlink:href="#DejaVuSerif-48" transform="translate(395.109375 0)"/>
      <use xlink:href="#DejaVuSerif-3" transform="translate(454.296875 0)"/>
      <use xlink:href="#DejaVuSerif-b" transform="translate(486.078125 0)"/>
      <use xlink:href="#DejaVuSerif-8" transform="translate(525.09375 0)"/>
      <use xlink:href="#DejaVuSerif-c" transform="translate(620.109375 0)"/>
     </g>
    </g>
   </g>
   <g id="line2d_22">
    <path d="M 313.21218 190.356307 
L 326.157483 131.549369 
L 339.102785 98.917272 
L 352.048087 79.190136 
L 364.99339 66.368173 
L 377.938692 57.5151 
L 390.883995 51.092055 
L 403.829297 46.241065 
L 416.774599 42.45629 
L 429.719902 39.424253 
L 442.665204 36.941957 
L 455.610506 34.872807 
L 468.555809 33.121775 
L 481.501111 31.62081 
L 494.446413 30.319943 
" clip-path="url(#p52c79f99e2)" style="fill: none; stroke: #b04a3a; stroke-width: 1.4; stroke-linecap: square"/>
    <defs>
     <path id="meff43f8295" d="M 0 2 
C 0.530406 2 1.03916 1.789267 1.414214 1.414214 
C 1.789267 1.03916 2 0.530406 2 0 
C 2 -0.530406 1.789267 -1.03916 1.414214 -1.414214 
C 1.03916 -1.789267 0.530406 -2 0 -2 
C -0.530406 -2 -1.03916 -1.789267 -1.414214 -1.414214 
C -1.789267 -1.03916 -2 -0.530406 -2 0 
C -2 0.530406 -1.789267 1.03916 -1.414214 1.414214 
C -1.03916 1.789267 -0.530406 2 0 2 
z
" style="stroke: #b04a3a"/>
    </defs>
    <g clip-path="url(#p52c79f99e2)">
     <use xlink:href="#meff43f8295" x="313.21218" y="190.356307" style="fill: #b04a3a; stroke: #b04a3a"/>
     <use xlink:href="#meff43f8295" x="326.157483" y="131.549369" style="fill: #b04a3a; stroke: #b04a3a"/>
     <use xlink:href="#meff43f8295" x="339.102785" y="98.917272" style="fill: #b04a3a; stroke: #b04a3a"/>
     <use xlink:href="#meff43f8295" x="352.048087" y="79.190136" style="fill: #b04a3a; stroke: #b04a3a"/>
     <use xlink:href="#meff43f8295" x="364.99339" y="66.368173" style="fill: #b04a3a; stroke: #b04a3a"/>
     <use xlink:href="#meff43f8295" x="377.938692" y="57.5151" style="fill: #b04a3a; stroke: #b04a3a"/>
     <use xlink:href="#meff43f8295" x="390.883995" y="51.092055" style="fill: #b04a3a; stroke: #b04a3a"/>
     <use xlink:href="#meff43f8295" x="403.829297" y="46.241065" style="fill: #b04a3a; stroke: #b04a3a"/>
     <use xlink:href="#meff43f8295" x="416.774599" y="42.45629" style="fill: #b04a3a; stroke: #b04a3a"/>
     <use xlink:href="#meff43f8295" x="429.719902" y="39.424253" style="fill: #b04a3a; stroke: #b04a3a"/>
     <use xlink:href="#meff43f8295" x="442.665204" y="36.941957" style="fill: #b04a3a; stroke: #b04a3a"/>
     <use xlink:href="#meff43f8295" x="455.610506" y="34.872807" style="fill: #b04a3a; stroke: #b04a3a"/>
     <use xlink:href="#meff43f8295" x="468.555809" y="33.121775" style="fill: #b04a3a; stroke: #b04a3a"/>
     <use xlink:href="#meff43f8295" x="481.501111" y="31.62081" style="fill: #b04a3a; stroke: #b04a3a"/>
     <use xlink:href="#meff43f8295" x="494.446413" y="30.319943" style="fill: #b04a3a; stroke: #b04a3a"/>
    </g>
   </g>
   <g id="line2d_23">
    <path d="M 304.150469 190.356307 
L 503.508125 190.356307 
" clip-path="url(#p52c79f99e2)" style="fill: none; stroke-dasharray: 3.7,1.6; stroke-dashoffset: 0; stroke: #808080"/>
   </g>
   <g id="patch_6">
    <path d="M 304.150469 198.358125 
L 304.150469 22.318125 
" style="fill: none; stroke: #000000; stroke-width: 0.7; stroke-linejoin: miter; stroke-linecap: square"/>
   </g>
   <g id="patch_7">
    <path d="M 304.150469 198.358125 
L 503.508125 198.358125 
" style="fill: none; stroke: #000000; stroke-width: 0.7; stroke-linejoin: miter; stroke-linecap: square"/>
   </g>
   <g id="text_25">
    <!-- Spot curve -->
    <g transform="translate(370.914609 16.318125) scale(0.12 -0.12)">
     <defs>
      <path id="DejaVuSerif-36" d="M 594 225 
L 594 1288 
L 953 1284 
Q 969 753 1261 498 
Q 1553 244 2150 244 
Q 2706 244 2998 464 
Q 3291 684 3291 1106 
Q 3291 1444 3114 1625 
Q 2938 1806 2369 1978 
L 1753 2163 
Q 1084 2366 811 2669 
Q 538 2972 538 3500 
Q 538 4094 959 4422 
Q 1381 4750 2144 4750 
Q 2469 4750 2856 4679 
Q 3244 4609 3681 4475 
L 3681 3481 
L 3328 3481 
Q 3275 3975 2998 4195 
Q 2722 4416 2156 4416 
Q 1663 4416 1405 4214 
Q 1147 4013 1147 3628 
Q 1147 3294 1340 3103 
Q 1534 2913 2163 2725 
L 2741 2553 
Q 3375 2363 3645 2067 
Q 3916 1772 3916 1275 
Q 3916 597 3481 253 
Q 3047 -91 2188 -91 
Q 1803 -91 1404 -12 
Q 1006 66 594 225 
z
" transform="scale(0.015625)"/>
      <path id="DejaVuSerif-59" d="M 1581 0 
L 359 2988 
L -19 2988 
L -19 3322 
L 1509 3322 
L 1509 2988 
L 978 2988 
L 1913 703 
L 2847 2988 
L 2350 2988 
L 2350 3322 
L 3597 3322 
L 3597 2988 
L 3225 2988 
L 2003 0 
L 1581 0 
z
" transform="scale(0.015625)"/>
     </defs>
     <use xlink:href="#DejaVuSerif-36"/>
     <use xlink:href="#DejaVuSerif-53" transform="translate(68.5 0)"/>
     <use xlink:href="#DejaVuSerif-52" transform="translate(132.515625 0)"/>
     <use xlink:href="#DejaVuSerif-57" transform="translate(192.71875 0)"/>
     <use xlink:href="#DejaVuSerif-3" transform="translate(232.90625 0)"/>
     <use xlink:href="#DejaVuSerif-46" transform="translate(264.6875 0)"/>
     <use xlink:href="#DejaVuSerif-58" transform="translate(320.6875 0)"/>
     <use xlink:href="#DejaVuSerif-55" transform="translate(385.09375 0)"/>
     <use xlink:href="#DejaVuSerif-59" transform="translate(432.890625 0)"/>
     <use xlink:href="#DejaVuSerif-48" transform="translate(489.390625 0)"/>
    </g>
   </g>
   <g id="legend_1">
    <g id="line2d_24">
     <path d="M 311.350469 32.798125 
L 319.350469 32.798125 
L 327.350469 32.798125 
" style="fill: none; stroke: #b04a3a; stroke-width: 1.4; stroke-linecap: square"/>
     <g>
      <use xlink:href="#meff43f8295" x="319.350469" y="32.798125" style="fill: #b04a3a; stroke: #b04a3a"/>
     </g>
    </g>
    <g id="text_26">
     <!-- $\mu_t(n)$ -->
     <g transform="translate(333.750469 35.598125) scale(0.08 -0.08)">
      <defs>
       <path id="DejaVuSans-Oblique-350" d="M -84 -1331 
L 856 3500 
L 1434 3500 
L 1009 1322 
Q 997 1256 987 1175 
Q 978 1094 978 1013 
Q 978 722 1161 565 
Q 1344 409 1684 409 
Q 2147 409 2431 671 
Q 2716 934 2816 1459 
L 3213 3500 
L 3788 3500 
L 3266 809 
Q 3253 750 3248 706 
Q 3244 663 3244 628 
Q 3244 531 3283 486 
Q 3322 441 3406 441 
Q 3438 441 3492 456 
Q 3547 472 3647 513 
L 3559 50 
Q 3422 -19 3297 -55 
Q 3172 -91 3053 -91 
Q 2847 -91 2730 40 
Q 2613 172 2613 403 
Q 2438 153 2195 31 
Q 1953 -91 1625 -91 
Q 1334 -91 1117 43 
Q 900 178 831 397 
L 494 -1331 
L -84 -1331 
z
" transform="scale(0.015625)"/>
       <path id="DejaVuSans-b" d="M 1984 4856 
Q 1566 4138 1362 3434 
Q 1159 2731 1159 2009 
Q 1159 1288 1364 580 
Q 1569 -128 1984 -844 
L 1484 -844 
Q 1016 -109 783 600 
Q 550 1309 550 2009 
Q 550 2706 781 3412 
Q 1013 4119 1484 4856 
L 1984 4856 
z
" transform="scale(0.015625)"/>
       <path id="DejaVuSans-c" d="M 513 4856 
L 1013 4856 
Q 1481 4119 1714 3412 
Q 1947 2706 1947 2009 
Q 1947 1309 1714 600 
Q 1481 -109 1013 -844 
L 513 -844 
Q 928 -128 1133 580 
Q 1338 1288 1338 2009 
Q 1338 2731 1133 3434 
Q 928 4138 513 4856 
z
" transform="scale(0.015625)"/>
      </defs>
      <use xlink:href="#DejaVuSans-Oblique-350" transform="translate(0 0.125)"/>
      <use xlink:href="#DejaVuSans-Oblique-57" transform="translate(63.623047 -14.874951) scale(0.7)"/>
      <use xlink:href="#DejaVuSans-b" transform="translate(93.803711 0.125)"/>
      <use xlink:href="#DejaVuSans-Oblique-51" transform="translate(132.817383 0.125)"/>
      <use xlink:href="#DejaVuSans-c" transform="translate(196.196289 0.125)"/>
     </g>
    </g>
    <g id="line2d_25">
     <path d="M 311.350469 44.8 
L 319.350469 44.8 
L 327.350469 44.8 
" style="fill: none; stroke-dasharray: 3.7,1.6; stroke-dashoffset: 0; stroke: #808080"/>
    </g>
    <g id="text_27">
     <!-- flat at $\mu_t(1)$ -->
     <g transform="translate(333.750469 47.6) scale(0.08 -0.08)">
      <defs>
       <path id="DejaVuSerif-49" d="M 2753 4078 
L 2450 4078 
Q 2447 4313 2317 4434 
Q 2188 4556 1941 4556 
Q 1619 4556 1487 4379 
Q 1356 4203 1356 3750 
L 1356 3322 
L 2284 3322 
L 2284 2988 
L 1356 2988 
L 1356 331 
L 2094 331 
L 2094 0 
L 231 0 
L 231 331 
L 781 331 
L 781 2988 
L 231 2988 
L 231 3322 
L 781 3322 
L 781 3738 
Q 781 4294 1070 4578 
Q 1359 4863 1919 4863 
Q 2128 4863 2337 4825 
Q 2547 4788 2753 4709 
L 2753 4078 
z
" transform="scale(0.015625)"/>
       <path id="DejaVuSerif-4f" d="M 1313 331 
L 1856 331 
L 1856 0 
L 184 0 
L 184 331 
L 738 331 
L 738 4531 
L 184 4531 
L 184 4863 
L 1313 4863 
L 1313 331 
z
" transform="scale(0.015625)"/>
       <path id="DejaVuSans-14" d="M 794 531 
L 1825 531 
L 1825 4091 
L 703 3866 
L 703 4441 
L 1819 4666 
L 2450 4666 
L 2450 531 
L 3481 531 
L 3481 0 
L 794 0 
L 794 531 
z
" transform="scale(0.015625)"/>
      </defs>
      <use xlink:href="#DejaVuSerif-49" transform="translate(0 0.015625)"/>
      <use xlink:href="#DejaVuSerif-4f" transform="translate(37.011719 0.015625)"/>
      <use xlink:href="#DejaVuSerif-44" transform="translate(68.994141 0.015625)"/>
      <use xlink:href="#DejaVuSerif-57" transform="translate(128.613281 0.015625)"/>
      <use xlink:href="#DejaVuSerif-3" transform="translate(168.798828 0.015625)"/>
      <use xlink:href="#DejaVuSerif-44" transform="translate(200.585938 0.015625)"/>
      <use xlink:href="#DejaVuSerif-57" transform="translate(260.205078 0.015625)"/>
      <use xlink:href="#DejaVuSerif-3" transform="translate(300.390625 0.015625)"/>
      <use xlink:href="#DejaVuSans-Oblique-350" transform="translate(332.177734 0.015625)"/>
      <use xlink:href="#DejaVuSans-Oblique-57" transform="translate(395.800781 -14.984326) scale(0.7)"/>
      <use xlink:href="#DejaVuSans-b" transform="translate(425.981445 0.015625)"/>
      <use xlink:href="#DejaVuSans-14" transform="translate(464.995117 0.015625)"/>
      <use xlink:href="#DejaVuSans-c" transform="translate(528.618164 0.015625)"/>
     </g>
    </g>
   </g>
  </g>
 </g>
 <defs>
  <clipPath id="pb3524d5be3">
   <rect x="56.830469" y="22.318125" width="199.357656" height="176.04"/>
  </clipPath>
  <clipPath id="p52c79f99e2">
   <rect x="304.150469" y="22.318125" width="199.357656" height="176.04"/>
  </clipPath>
 </defs>
</svg>
